<mxfile host="Electron" modified="2023-06-22T04:43:00.226Z" agent="Mozilla/5.0 (Windows NT 10.0; Win64; x64) AppleWebKit/537.36 (KHTML, like Gecko) draw.io/21.5.0 Chrome/112.0.5615.204 Electron/24.5.1 Safari/537.36" etag="_W_y8D1Y6BwRyUQYav9T" version="21.5.0" type="device">
  <diagram id="C5RBs43oDa-KdzZeNtuy" name="Page-1">
    <mxGraphModel dx="1646" dy="918" grid="1" gridSize="10" guides="1" tooltips="1" connect="1" arrows="1" fold="1" page="1" pageScale="1" pageWidth="827" pageHeight="1169" math="0" shadow="0">
      <root>
        <mxCell id="WIyWlLk6GJQsqaUBKTNV-0" />
        <mxCell id="WIyWlLk6GJQsqaUBKTNV-1" parent="WIyWlLk6GJQsqaUBKTNV-0" />
        <mxCell id="bWELumP_BHfffEaQlAh1-49" value="" style="shape=internalStorage;whiteSpace=wrap;html=1;backgroundOutline=1;dx=40;dy=40;" parent="WIyWlLk6GJQsqaUBKTNV-1" vertex="1">
          <mxGeometry x="620" y="50" width="1530" height="840" as="geometry" />
        </mxCell>
        <mxCell id="bWELumP_BHfffEaQlAh1-0" value="Board" style="swimlane;fontStyle=1;align=center;verticalAlign=top;childLayout=stackLayout;horizontal=1;startSize=26;horizontalStack=0;resizeParent=1;resizeLast=0;collapsible=1;marginBottom=0;rounded=0;shadow=0;strokeWidth=3;" parent="WIyWlLk6GJQsqaUBKTNV-1" vertex="1">
          <mxGeometry x="760" y="120" width="370" height="372" as="geometry">
            <mxRectangle x="230" y="140" width="160" height="26" as="alternateBounds" />
          </mxGeometry>
        </mxCell>
        <mxCell id="bWELumP_BHfffEaQlAh1-1" value="+ Rows: int" style="text;align=left;verticalAlign=top;spacingLeft=4;spacingRight=4;overflow=hidden;rotatable=0;points=[[0,0.5],[1,0.5]];portConstraint=eastwest;" parent="bWELumP_BHfffEaQlAh1-0" vertex="1">
          <mxGeometry y="26" width="370" height="26" as="geometry" />
        </mxCell>
        <mxCell id="bWELumP_BHfffEaQlAh1-2" value="+ Columns: int" style="text;align=left;verticalAlign=top;spacingLeft=4;spacingRight=4;overflow=hidden;rotatable=0;points=[[0,0.5],[1,0.5]];portConstraint=eastwest;rounded=0;shadow=0;html=0;" parent="bWELumP_BHfffEaQlAh1-0" vertex="1">
          <mxGeometry y="52" width="370" height="26" as="geometry" />
        </mxCell>
        <mxCell id="bWELumP_BHfffEaQlAh1-7" value="+ Matrix: string[ , ]" style="text;align=left;verticalAlign=top;spacingLeft=4;spacingRight=4;overflow=hidden;rotatable=0;points=[[0,0.5],[1,0.5]];portConstraint=eastwest;rounded=0;shadow=0;html=0;" parent="bWELumP_BHfffEaQlAh1-0" vertex="1">
          <mxGeometry y="78" width="370" height="26" as="geometry" />
        </mxCell>
        <mxCell id="bWELumP_BHfffEaQlAh1-3" value="+ ListValidColumnInputs: List&lt;int&gt;" style="text;align=left;verticalAlign=top;spacingLeft=4;spacingRight=4;overflow=hidden;rotatable=0;points=[[0,0.5],[1,0.5]];portConstraint=eastwest;rounded=0;shadow=0;html=0;" parent="bWELumP_BHfffEaQlAh1-0" vertex="1">
          <mxGeometry y="104" width="370" height="26" as="geometry" />
        </mxCell>
        <mxCell id="_OIX7uprU67MnlCqu99Z-2" value="+ IsBoardFull: bool" style="text;align=left;verticalAlign=top;spacingLeft=4;spacingRight=4;overflow=hidden;rotatable=0;points=[[0,0.5],[1,0.5]];portConstraint=eastwest;rounded=0;shadow=0;html=0;" vertex="1" parent="bWELumP_BHfffEaQlAh1-0">
          <mxGeometry y="130" width="370" height="26" as="geometry" />
        </mxCell>
        <mxCell id="bWELumP_BHfffEaQlAh1-4" value="" style="line;html=1;strokeWidth=1;align=left;verticalAlign=middle;spacingTop=-1;spacingLeft=3;spacingRight=3;rotatable=0;labelPosition=right;points=[];portConstraint=eastwest;" parent="bWELumP_BHfffEaQlAh1-0" vertex="1">
          <mxGeometry y="156" width="370" height="8" as="geometry" />
        </mxCell>
        <mxCell id="bWELumP_BHfffEaQlAh1-5" value="+ ResetBoard(): void" style="text;align=left;verticalAlign=top;spacingLeft=4;spacingRight=4;overflow=hidden;rotatable=0;points=[[0,0.5],[1,0.5]];portConstraint=eastwest;" parent="bWELumP_BHfffEaQlAh1-0" vertex="1">
          <mxGeometry y="164" width="370" height="26" as="geometry" />
        </mxCell>
        <mxCell id="bWELumP_BHfffEaQlAh1-8" value="+ PopulateListValidColumnInputs(): void" style="text;align=left;verticalAlign=top;spacingLeft=4;spacingRight=4;overflow=hidden;rotatable=0;points=[[0,0.5],[1,0.5]];portConstraint=eastwest;" parent="bWELumP_BHfffEaQlAh1-0" vertex="1">
          <mxGeometry y="190" width="370" height="26" as="geometry" />
        </mxCell>
        <mxCell id="bWELumP_BHfffEaQlAh1-9" value="+ UpdateValues(columnSelected: int, currentPlayer:Player): void" style="text;align=left;verticalAlign=top;spacingLeft=4;spacingRight=4;overflow=hidden;rotatable=0;points=[[0,0.5],[1,0.5]];portConstraint=eastwest;" parent="bWELumP_BHfffEaQlAh1-0" vertex="1">
          <mxGeometry y="216" width="370" height="26" as="geometry" />
        </mxCell>
        <mxCell id="bWELumP_BHfffEaQlAh1-10" value="+ DisplayCurrentState(): string" style="text;align=left;verticalAlign=top;spacingLeft=4;spacingRight=4;overflow=hidden;rotatable=0;points=[[0,0.5],[1,0.5]];portConstraint=eastwest;" parent="bWELumP_BHfffEaQlAh1-0" vertex="1">
          <mxGeometry y="242" width="370" height="26" as="geometry" />
        </mxCell>
        <mxCell id="bWELumP_BHfffEaQlAh1-37" value="+ CheckIfPlayerWon(currentPlayer: Player): bool" style="text;align=left;verticalAlign=top;spacingLeft=4;spacingRight=4;overflow=hidden;rotatable=0;points=[[0,0.5],[1,0.5]];portConstraint=eastwest;" parent="bWELumP_BHfffEaQlAh1-0" vertex="1">
          <mxGeometry y="268" width="370" height="26" as="geometry" />
        </mxCell>
        <mxCell id="bWELumP_BHfffEaQlAh1-50" value="+ CheckIfBoardFull(): void" style="text;align=left;verticalAlign=top;spacingLeft=4;spacingRight=4;overflow=hidden;rotatable=0;points=[[0,0.5],[1,0.5]];portConstraint=eastwest;" parent="bWELumP_BHfffEaQlAh1-0" vertex="1">
          <mxGeometry y="294" width="370" height="26" as="geometry" />
        </mxCell>
        <mxCell id="_OIX7uprU67MnlCqu99Z-3" value="+ ValidateSelectedColumn(): bool" style="text;align=left;verticalAlign=top;spacingLeft=4;spacingRight=4;overflow=hidden;rotatable=0;points=[[0,0.5],[1,0.5]];portConstraint=eastwest;" vertex="1" parent="bWELumP_BHfffEaQlAh1-0">
          <mxGeometry y="320" width="370" height="26" as="geometry" />
        </mxCell>
        <mxCell id="bWELumP_BHfffEaQlAh1-11" value="+ ToString(): string" style="text;align=left;verticalAlign=top;spacingLeft=4;spacingRight=4;overflow=hidden;rotatable=0;points=[[0,0.5],[1,0.5]];portConstraint=eastwest;" parent="bWELumP_BHfffEaQlAh1-0" vertex="1">
          <mxGeometry y="346" width="370" height="26" as="geometry" />
        </mxCell>
        <mxCell id="bWELumP_BHfffEaQlAh1-12" value="Player" style="swimlane;fontStyle=3;align=center;verticalAlign=top;childLayout=stackLayout;horizontal=1;startSize=26;horizontalStack=0;resizeParent=1;resizeLast=0;collapsible=1;marginBottom=0;rounded=0;shadow=0;strokeWidth=3;" parent="WIyWlLk6GJQsqaUBKTNV-1" vertex="1">
          <mxGeometry x="1290" y="276" width="240" height="216" as="geometry">
            <mxRectangle x="230" y="140" width="160" height="26" as="alternateBounds" />
          </mxGeometry>
        </mxCell>
        <mxCell id="bWELumP_BHfffEaQlAh1-13" value="# Name: string" style="text;align=left;verticalAlign=top;spacingLeft=4;spacingRight=4;overflow=hidden;rotatable=0;points=[[0,0.5],[1,0.5]];portConstraint=eastwest;" parent="bWELumP_BHfffEaQlAh1-12" vertex="1">
          <mxGeometry y="26" width="240" height="26" as="geometry" />
        </mxCell>
        <mxCell id="bWELumP_BHfffEaQlAh1-14" value="# Icon: string" style="text;align=left;verticalAlign=top;spacingLeft=4;spacingRight=4;overflow=hidden;rotatable=0;points=[[0,0.5],[1,0.5]];portConstraint=eastwest;rounded=0;shadow=0;html=0;" parent="bWELumP_BHfffEaQlAh1-12" vertex="1">
          <mxGeometry y="52" width="240" height="26" as="geometry" />
        </mxCell>
        <mxCell id="_OIX7uprU67MnlCqu99Z-10" value="# ScoreMatches: int" style="text;align=left;verticalAlign=top;spacingLeft=4;spacingRight=4;overflow=hidden;rotatable=0;points=[[0,0.5],[1,0.5]];portConstraint=eastwest;rounded=0;shadow=0;html=0;" vertex="1" parent="bWELumP_BHfffEaQlAh1-12">
          <mxGeometry y="78" width="240" height="26" as="geometry" />
        </mxCell>
        <mxCell id="bWELumP_BHfffEaQlAh1-17" value="" style="line;html=1;strokeWidth=1;align=left;verticalAlign=middle;spacingTop=-1;spacingLeft=3;spacingRight=3;rotatable=0;labelPosition=right;points=[];portConstraint=eastwest;" parent="bWELumP_BHfffEaQlAh1-12" vertex="1">
          <mxGeometry y="104" width="240" height="8" as="geometry" />
        </mxCell>
        <mxCell id="_OIX7uprU67MnlCqu99Z-11" value="+ IncreaseScore(): void" style="text;align=left;verticalAlign=top;spacingLeft=4;spacingRight=4;overflow=hidden;rotatable=0;points=[[0,0.5],[1,0.5]];portConstraint=eastwest;" vertex="1" parent="bWELumP_BHfffEaQlAh1-12">
          <mxGeometry y="112" width="240" height="26" as="geometry" />
        </mxCell>
        <mxCell id="_OIX7uprU67MnlCqu99Z-12" value="+ MakeAMove(): int" style="text;align=left;verticalAlign=top;spacingLeft=4;spacingRight=4;overflow=hidden;rotatable=0;points=[[0,0.5],[1,0.5]];portConstraint=eastwest;fontStyle=2" vertex="1" parent="bWELumP_BHfffEaQlAh1-12">
          <mxGeometry y="138" width="240" height="26" as="geometry" />
        </mxCell>
        <mxCell id="_OIX7uprU67MnlCqu99Z-13" value="+ CompareTo(): int" style="text;align=left;verticalAlign=top;spacingLeft=4;spacingRight=4;overflow=hidden;rotatable=0;points=[[0,0.5],[1,0.5]];portConstraint=eastwest;" vertex="1" parent="bWELumP_BHfffEaQlAh1-12">
          <mxGeometry y="164" width="240" height="26" as="geometry" />
        </mxCell>
        <mxCell id="bWELumP_BHfffEaQlAh1-22" value="+ ToString(): string" style="text;align=left;verticalAlign=top;spacingLeft=4;spacingRight=4;overflow=hidden;rotatable=0;points=[[0,0.5],[1,0.5]];portConstraint=eastwest;" parent="bWELumP_BHfffEaQlAh1-12" vertex="1">
          <mxGeometry y="190" width="240" height="26" as="geometry" />
        </mxCell>
        <mxCell id="bWELumP_BHfffEaQlAh1-23" value="GameController" style="swimlane;fontStyle=1;align=center;verticalAlign=top;childLayout=stackLayout;horizontal=1;startSize=26;horizontalStack=0;resizeParent=1;resizeLast=0;collapsible=1;marginBottom=0;rounded=0;shadow=0;strokeWidth=3;" parent="WIyWlLk6GJQsqaUBKTNV-1" vertex="1">
          <mxGeometry x="1710" y="120" width="370" height="502" as="geometry">
            <mxRectangle x="230" y="140" width="160" height="26" as="alternateBounds" />
          </mxGeometry>
        </mxCell>
        <mxCell id="bWELumP_BHfffEaQlAh1-24" value="+ MyBoard: Board" style="text;align=left;verticalAlign=top;spacingLeft=4;spacingRight=4;overflow=hidden;rotatable=0;points=[[0,0.5],[1,0.5]];portConstraint=eastwest;" parent="bWELumP_BHfffEaQlAh1-23" vertex="1">
          <mxGeometry y="26" width="370" height="26" as="geometry" />
        </mxCell>
        <mxCell id="bWELumP_BHfffEaQlAh1-25" value="+ ListPlayers: List&lt;Players&gt;" style="text;align=left;verticalAlign=top;spacingLeft=4;spacingRight=4;overflow=hidden;rotatable=0;points=[[0,0.5],[1,0.5]];portConstraint=eastwest;rounded=0;shadow=0;html=0;" parent="bWELumP_BHfffEaQlAh1-23" vertex="1">
          <mxGeometry y="52" width="370" height="26" as="geometry" />
        </mxCell>
        <mxCell id="_OIX7uprU67MnlCqu99Z-17" value="+ GameMode: string" style="text;align=left;verticalAlign=top;spacingLeft=4;spacingRight=4;overflow=hidden;rotatable=0;points=[[0,0.5],[1,0.5]];portConstraint=eastwest;rounded=0;shadow=0;html=0;" vertex="1" parent="bWELumP_BHfffEaQlAh1-23">
          <mxGeometry y="78" width="370" height="26" as="geometry" />
        </mxCell>
        <mxCell id="bWELumP_BHfffEaQlAh1-28" value="+ WhoPlaysFirst: int" style="text;align=left;verticalAlign=top;spacingLeft=4;spacingRight=4;overflow=hidden;rotatable=0;points=[[0,0.5],[1,0.5]];portConstraint=eastwest;rounded=0;shadow=0;html=0;" parent="bWELumP_BHfffEaQlAh1-23" vertex="1">
          <mxGeometry y="104" width="370" height="26" as="geometry" />
        </mxCell>
        <mxCell id="_OIX7uprU67MnlCqu99Z-18" value="+ TurnCounter: int" style="text;align=left;verticalAlign=top;spacingLeft=4;spacingRight=4;overflow=hidden;rotatable=0;points=[[0,0.5],[1,0.5]];portConstraint=eastwest;rounded=0;shadow=0;html=0;" vertex="1" parent="bWELumP_BHfffEaQlAh1-23">
          <mxGeometry y="130" width="370" height="26" as="geometry" />
        </mxCell>
        <mxCell id="_OIX7uprU67MnlCqu99Z-19" value="- MatchCounter: int" style="text;align=left;verticalAlign=top;spacingLeft=4;spacingRight=4;overflow=hidden;rotatable=0;points=[[0,0.5],[1,0.5]];portConstraint=eastwest;rounded=0;shadow=0;html=0;" vertex="1" parent="bWELumP_BHfffEaQlAh1-23">
          <mxGeometry y="156" width="370" height="26" as="geometry" />
        </mxCell>
        <mxCell id="bWELumP_BHfffEaQlAh1-29" value="+ IsMatchFinished: bool" style="text;align=left;verticalAlign=top;spacingLeft=4;spacingRight=4;overflow=hidden;rotatable=0;points=[[0,0.5],[1,0.5]];portConstraint=eastwest;rounded=0;shadow=0;html=0;" parent="bWELumP_BHfffEaQlAh1-23" vertex="1">
          <mxGeometry y="182" width="370" height="26" as="geometry" />
        </mxCell>
        <mxCell id="bWELumP_BHfffEaQlAh1-30" value="- IsGameFinished: bool" style="text;align=left;verticalAlign=top;spacingLeft=4;spacingRight=4;overflow=hidden;rotatable=0;points=[[0,0.5],[1,0.5]];portConstraint=eastwest;rounded=0;shadow=0;html=0;" parent="bWELumP_BHfffEaQlAh1-23" vertex="1">
          <mxGeometry y="208" width="370" height="26" as="geometry" />
        </mxCell>
        <mxCell id="bWELumP_BHfffEaQlAh1-26" value="" style="line;html=1;strokeWidth=1;align=left;verticalAlign=middle;spacingTop=-1;spacingLeft=3;spacingRight=3;rotatable=0;labelPosition=right;points=[];portConstraint=eastwest;" parent="bWELumP_BHfffEaQlAh1-23" vertex="1">
          <mxGeometry y="234" width="370" height="8" as="geometry" />
        </mxCell>
        <mxCell id="bWELumP_BHfffEaQlAh1-35" value="- PromptValidColumn(currentPlayer:Player): int" style="text;align=left;verticalAlign=top;spacingLeft=4;spacingRight=4;overflow=hidden;rotatable=0;points=[[0,0.5],[1,0.5]];portConstraint=eastwest;" parent="bWELumP_BHfffEaQlAh1-23" vertex="1">
          <mxGeometry y="242" width="370" height="26" as="geometry" />
        </mxCell>
        <mxCell id="_OIX7uprU67MnlCqu99Z-20" value="- DisplayPlayersScores(): void" style="text;align=left;verticalAlign=top;spacingLeft=4;spacingRight=4;overflow=hidden;rotatable=0;points=[[0,0.5],[1,0.5]];portConstraint=eastwest;" vertex="1" parent="bWELumP_BHfffEaQlAh1-23">
          <mxGeometry y="268" width="370" height="26" as="geometry" />
        </mxCell>
        <mxCell id="bWELumP_BHfffEaQlAh1-27" value="+ StartupMessage(): void" style="text;align=left;verticalAlign=top;spacingLeft=4;spacingRight=4;overflow=hidden;rotatable=0;points=[[0,0.5],[1,0.5]];portConstraint=eastwest;" parent="bWELumP_BHfffEaQlAh1-23" vertex="1">
          <mxGeometry y="294" width="370" height="26" as="geometry" />
        </mxCell>
        <mxCell id="bWELumP_BHfffEaQlAh1-31" value="+ ResetMatch(): void" style="text;align=left;verticalAlign=top;spacingLeft=4;spacingRight=4;overflow=hidden;rotatable=0;points=[[0,0.5],[1,0.5]];portConstraint=eastwest;" parent="bWELumP_BHfffEaQlAh1-23" vertex="1">
          <mxGeometry y="320" width="370" height="26" as="geometry" />
        </mxCell>
        <mxCell id="_OIX7uprU67MnlCqu99Z-21" value="+ PromptGameMode(): void" style="text;align=left;verticalAlign=top;spacingLeft=4;spacingRight=4;overflow=hidden;rotatable=0;points=[[0,0.5],[1,0.5]];portConstraint=eastwest;" vertex="1" parent="bWELumP_BHfffEaQlAh1-23">
          <mxGeometry y="346" width="370" height="26" as="geometry" />
        </mxCell>
        <mxCell id="bWELumP_BHfffEaQlAh1-34" value="+ AddPlayers(): void" style="text;align=left;verticalAlign=top;spacingLeft=4;spacingRight=4;overflow=hidden;rotatable=0;points=[[0,0.5],[1,0.5]];portConstraint=eastwest;" parent="bWELumP_BHfffEaQlAh1-23" vertex="1">
          <mxGeometry y="372" width="370" height="26" as="geometry" />
        </mxCell>
        <mxCell id="_OIX7uprU67MnlCqu99Z-22" value="+ RandomlySelectWhoPlaysFirst(): void" style="text;align=left;verticalAlign=top;spacingLeft=4;spacingRight=4;overflow=hidden;rotatable=0;points=[[0,0.5],[1,0.5]];portConstraint=eastwest;" vertex="1" parent="bWELumP_BHfffEaQlAh1-23">
          <mxGeometry y="398" width="370" height="26" as="geometry" />
        </mxCell>
        <mxCell id="bWELumP_BHfffEaQlAh1-32" value="+ PlayMatch(): void" style="text;align=left;verticalAlign=top;spacingLeft=4;spacingRight=4;overflow=hidden;rotatable=0;points=[[0,0.5],[1,0.5]];portConstraint=eastwest;" parent="bWELumP_BHfffEaQlAh1-23" vertex="1">
          <mxGeometry y="424" width="370" height="26" as="geometry" />
        </mxCell>
        <mxCell id="bWELumP_BHfffEaQlAh1-36" value="+ PromptKeepPlaying(): void" style="text;align=left;verticalAlign=top;spacingLeft=4;spacingRight=4;overflow=hidden;rotatable=0;points=[[0,0.5],[1,0.5]];portConstraint=eastwest;" parent="bWELumP_BHfffEaQlAh1-23" vertex="1">
          <mxGeometry y="450" width="370" height="26" as="geometry" />
        </mxCell>
        <mxCell id="_OIX7uprU67MnlCqu99Z-23" value="+ FinalScoreMessage(): void" style="text;align=left;verticalAlign=top;spacingLeft=4;spacingRight=4;overflow=hidden;rotatable=0;points=[[0,0.5],[1,0.5]];portConstraint=eastwest;" vertex="1" parent="bWELumP_BHfffEaQlAh1-23">
          <mxGeometry y="476" width="370" height="26" as="geometry" />
        </mxCell>
        <mxCell id="bWELumP_BHfffEaQlAh1-38" value="HumanPlayer" style="swimlane;fontStyle=0;align=center;verticalAlign=top;childLayout=stackLayout;horizontal=1;startSize=26;horizontalStack=0;resizeParent=1;resizeLast=0;collapsible=1;marginBottom=0;rounded=0;shadow=0;strokeWidth=3;" parent="WIyWlLk6GJQsqaUBKTNV-1" vertex="1">
          <mxGeometry x="1200" y="560" width="190" height="138" as="geometry">
            <mxRectangle x="130" y="380" width="160" height="26" as="alternateBounds" />
          </mxGeometry>
        </mxCell>
        <mxCell id="bWELumP_BHfffEaQlAh1-40" value=" " style="text;align=left;verticalAlign=top;spacingLeft=4;spacingRight=4;overflow=hidden;rotatable=0;points=[[0,0.5],[1,0.5]];portConstraint=eastwest;rounded=0;shadow=0;html=0;" parent="bWELumP_BHfffEaQlAh1-38" vertex="1">
          <mxGeometry y="26" width="190" height="26" as="geometry" />
        </mxCell>
        <mxCell id="bWELumP_BHfffEaQlAh1-41" value="" style="line;html=1;strokeWidth=1;align=left;verticalAlign=middle;spacingTop=-1;spacingLeft=3;spacingRight=3;rotatable=0;labelPosition=right;points=[];portConstraint=eastwest;" parent="bWELumP_BHfffEaQlAh1-38" vertex="1">
          <mxGeometry y="52" width="190" height="8" as="geometry" />
        </mxCell>
        <mxCell id="bWELumP_BHfffEaQlAh1-42" value="+ MakeAMove(): int" style="text;align=left;verticalAlign=top;spacingLeft=4;spacingRight=4;overflow=hidden;rotatable=0;points=[[0,0.5],[1,0.5]];portConstraint=eastwest;fontStyle=0" parent="bWELumP_BHfffEaQlAh1-38" vertex="1">
          <mxGeometry y="60" width="190" height="26" as="geometry" />
        </mxCell>
        <mxCell id="_OIX7uprU67MnlCqu99Z-14" value="+ ToString(): string" style="text;align=left;verticalAlign=top;spacingLeft=4;spacingRight=4;overflow=hidden;rotatable=0;points=[[0,0.5],[1,0.5]];portConstraint=eastwest;" vertex="1" parent="bWELumP_BHfffEaQlAh1-38">
          <mxGeometry y="86" width="190" height="26" as="geometry" />
        </mxCell>
        <mxCell id="bWELumP_BHfffEaQlAh1-44" value="" style="endArrow=block;endSize=10;endFill=0;shadow=0;strokeWidth=1;rounded=0;edgeStyle=elbowEdgeStyle;elbow=vertical;entryX=0.5;entryY=1;entryDx=0;entryDy=0;" parent="WIyWlLk6GJQsqaUBKTNV-1" source="bWELumP_BHfffEaQlAh1-38" edge="1" target="bWELumP_BHfffEaQlAh1-12">
          <mxGeometry width="160" relative="1" as="geometry">
            <mxPoint x="1310" y="365" as="sourcePoint" />
            <mxPoint x="1430" y="490" as="targetPoint" />
          </mxGeometry>
        </mxCell>
        <mxCell id="bWELumP_BHfffEaQlAh1-45" value="ComputerPlayer" style="swimlane;fontStyle=0;align=center;verticalAlign=top;childLayout=stackLayout;horizontal=1;startSize=26;horizontalStack=0;resizeParent=1;resizeLast=0;collapsible=1;marginBottom=0;rounded=0;shadow=0;strokeWidth=3;" parent="WIyWlLk6GJQsqaUBKTNV-1" vertex="1">
          <mxGeometry x="1420" y="560" width="190" height="138" as="geometry">
            <mxRectangle x="340" y="380" width="170" height="26" as="alternateBounds" />
          </mxGeometry>
        </mxCell>
        <mxCell id="bWELumP_BHfffEaQlAh1-46" value=" " style="text;align=left;verticalAlign=top;spacingLeft=4;spacingRight=4;overflow=hidden;rotatable=0;points=[[0,0.5],[1,0.5]];portConstraint=eastwest;" parent="bWELumP_BHfffEaQlAh1-45" vertex="1">
          <mxGeometry y="26" width="190" height="26" as="geometry" />
        </mxCell>
        <mxCell id="bWELumP_BHfffEaQlAh1-47" value="" style="line;html=1;strokeWidth=1;align=left;verticalAlign=middle;spacingTop=-1;spacingLeft=3;spacingRight=3;rotatable=0;labelPosition=right;points=[];portConstraint=eastwest;" parent="bWELumP_BHfffEaQlAh1-45" vertex="1">
          <mxGeometry y="52" width="190" height="8" as="geometry" />
        </mxCell>
        <mxCell id="_OIX7uprU67MnlCqu99Z-15" value="+ MakeAMove(): int" style="text;align=left;verticalAlign=top;spacingLeft=4;spacingRight=4;overflow=hidden;rotatable=0;points=[[0,0.5],[1,0.5]];portConstraint=eastwest;fontStyle=0" vertex="1" parent="bWELumP_BHfffEaQlAh1-45">
          <mxGeometry y="60" width="190" height="26" as="geometry" />
        </mxCell>
        <mxCell id="_OIX7uprU67MnlCqu99Z-16" value="+ ToString(): string" style="text;align=left;verticalAlign=top;spacingLeft=4;spacingRight=4;overflow=hidden;rotatable=0;points=[[0,0.5],[1,0.5]];portConstraint=eastwest;" vertex="1" parent="bWELumP_BHfffEaQlAh1-45">
          <mxGeometry y="86" width="190" height="26" as="geometry" />
        </mxCell>
        <mxCell id="bWELumP_BHfffEaQlAh1-48" value="" style="endArrow=block;endSize=10;endFill=0;shadow=0;strokeWidth=1;rounded=0;edgeStyle=elbowEdgeStyle;elbow=vertical;entryX=0.5;entryY=1;entryDx=0;entryDy=0;" parent="WIyWlLk6GJQsqaUBKTNV-1" source="bWELumP_BHfffEaQlAh1-45" edge="1" target="bWELumP_BHfffEaQlAh1-12">
          <mxGeometry width="160" relative="1" as="geometry">
            <mxPoint x="1320" y="535" as="sourcePoint" />
            <mxPoint x="1430" y="480" as="targetPoint" />
          </mxGeometry>
        </mxCell>
        <mxCell id="_OIX7uprU67MnlCqu99Z-0" value="&lt;b&gt;&lt;font style=&quot;font-size: 17px;&quot;&gt;Project - Connect Four&lt;/font&gt;&lt;/b&gt;" style="text;strokeColor=none;align=center;fillColor=none;html=1;verticalAlign=middle;whiteSpace=wrap;rounded=0;fontSize=14;" vertex="1" parent="WIyWlLk6GJQsqaUBKTNV-1">
          <mxGeometry x="670" y="60" width="190" height="20" as="geometry" />
        </mxCell>
        <mxCell id="_OIX7uprU67MnlCqu99Z-4" value="&lt;&lt;interface&gt;&gt; IComparable" style="swimlane;fontStyle=1;align=center;verticalAlign=top;childLayout=stackLayout;horizontal=1;startSize=26;horizontalStack=0;resizeParent=1;resizeLast=0;collapsible=1;marginBottom=0;rounded=0;shadow=0;strokeWidth=1;" vertex="1" parent="WIyWlLk6GJQsqaUBKTNV-1">
          <mxGeometry x="1289" y="120" width="241" height="110" as="geometry">
            <mxRectangle x="230" y="140" width="160" height="26" as="alternateBounds" />
          </mxGeometry>
        </mxCell>
        <mxCell id="_OIX7uprU67MnlCqu99Z-5" value=" " style="text;align=left;verticalAlign=top;spacingLeft=4;spacingRight=4;overflow=hidden;rotatable=0;points=[[0,0.5],[1,0.5]];portConstraint=eastwest;" vertex="1" parent="_OIX7uprU67MnlCqu99Z-4">
          <mxGeometry y="26" width="241" height="26" as="geometry" />
        </mxCell>
        <mxCell id="_OIX7uprU67MnlCqu99Z-7" value="" style="line;html=1;strokeWidth=1;align=left;verticalAlign=middle;spacingTop=-1;spacingLeft=3;spacingRight=3;rotatable=0;labelPosition=right;points=[];portConstraint=eastwest;" vertex="1" parent="_OIX7uprU67MnlCqu99Z-4">
          <mxGeometry y="52" width="241" height="8" as="geometry" />
        </mxCell>
        <mxCell id="_OIX7uprU67MnlCqu99Z-8" value="+ CompareTo(): int" style="text;align=left;verticalAlign=top;spacingLeft=4;spacingRight=4;overflow=hidden;rotatable=0;points=[[0,0.5],[1,0.5]];portConstraint=eastwest;" vertex="1" parent="_OIX7uprU67MnlCqu99Z-4">
          <mxGeometry y="60" width="241" height="26" as="geometry" />
        </mxCell>
        <mxCell id="_OIX7uprU67MnlCqu99Z-9" value="" style="endArrow=block;endSize=10;endFill=0;shadow=0;strokeWidth=1;rounded=0;edgeStyle=elbowEdgeStyle;elbow=vertical;exitX=0.5;exitY=0;exitDx=0;exitDy=0;entryX=0.5;entryY=1;entryDx=0;entryDy=0;" edge="1" parent="WIyWlLk6GJQsqaUBKTNV-1" source="bWELumP_BHfffEaQlAh1-12" target="_OIX7uprU67MnlCqu99Z-4">
          <mxGeometry width="160" relative="1" as="geometry">
            <mxPoint x="1516" y="410" as="sourcePoint" />
            <mxPoint x="1370" y="280" as="targetPoint" />
          </mxGeometry>
        </mxCell>
        <mxCell id="_OIX7uprU67MnlCqu99Z-24" value="ColumnAlreadyFullException" style="swimlane;fontStyle=0;align=center;verticalAlign=top;childLayout=stackLayout;horizontal=1;startSize=26;horizontalStack=0;resizeParent=1;resizeLast=0;collapsible=1;marginBottom=0;rounded=0;shadow=0;strokeWidth=3;" vertex="1" parent="WIyWlLk6GJQsqaUBKTNV-1">
          <mxGeometry x="730" y="762" width="210" height="100" as="geometry">
            <mxRectangle x="130" y="380" width="160" height="26" as="alternateBounds" />
          </mxGeometry>
        </mxCell>
        <mxCell id="_OIX7uprU67MnlCqu99Z-25" value=" " style="text;align=left;verticalAlign=top;spacingLeft=4;spacingRight=4;overflow=hidden;rotatable=0;points=[[0,0.5],[1,0.5]];portConstraint=eastwest;rounded=0;shadow=0;html=0;" vertex="1" parent="_OIX7uprU67MnlCqu99Z-24">
          <mxGeometry y="26" width="210" height="26" as="geometry" />
        </mxCell>
        <mxCell id="_OIX7uprU67MnlCqu99Z-26" value="" style="line;html=1;strokeWidth=1;align=left;verticalAlign=middle;spacingTop=-1;spacingLeft=3;spacingRight=3;rotatable=0;labelPosition=right;points=[];portConstraint=eastwest;" vertex="1" parent="_OIX7uprU67MnlCqu99Z-24">
          <mxGeometry y="52" width="210" height="8" as="geometry" />
        </mxCell>
        <mxCell id="_OIX7uprU67MnlCqu99Z-27" value=" " style="text;align=left;verticalAlign=top;spacingLeft=4;spacingRight=4;overflow=hidden;rotatable=0;points=[[0,0.5],[1,0.5]];portConstraint=eastwest;fontStyle=0" vertex="1" parent="_OIX7uprU67MnlCqu99Z-24">
          <mxGeometry y="60" width="210" height="26" as="geometry" />
        </mxCell>
        <mxCell id="_OIX7uprU67MnlCqu99Z-29" value="ColumnOutOfRangeException" style="swimlane;fontStyle=0;align=center;verticalAlign=top;childLayout=stackLayout;horizontal=1;startSize=26;horizontalStack=0;resizeParent=1;resizeLast=0;collapsible=1;marginBottom=0;rounded=0;shadow=0;strokeWidth=3;" vertex="1" parent="WIyWlLk6GJQsqaUBKTNV-1">
          <mxGeometry x="970" y="762" width="210" height="100" as="geometry">
            <mxRectangle x="130" y="380" width="160" height="26" as="alternateBounds" />
          </mxGeometry>
        </mxCell>
        <mxCell id="_OIX7uprU67MnlCqu99Z-30" value=" " style="text;align=left;verticalAlign=top;spacingLeft=4;spacingRight=4;overflow=hidden;rotatable=0;points=[[0,0.5],[1,0.5]];portConstraint=eastwest;rounded=0;shadow=0;html=0;" vertex="1" parent="_OIX7uprU67MnlCqu99Z-29">
          <mxGeometry y="26" width="210" height="26" as="geometry" />
        </mxCell>
        <mxCell id="_OIX7uprU67MnlCqu99Z-31" value="" style="line;html=1;strokeWidth=1;align=left;verticalAlign=middle;spacingTop=-1;spacingLeft=3;spacingRight=3;rotatable=0;labelPosition=right;points=[];portConstraint=eastwest;" vertex="1" parent="_OIX7uprU67MnlCqu99Z-29">
          <mxGeometry y="52" width="210" height="8" as="geometry" />
        </mxCell>
        <mxCell id="_OIX7uprU67MnlCqu99Z-32" value=" " style="text;align=left;verticalAlign=top;spacingLeft=4;spacingRight=4;overflow=hidden;rotatable=0;points=[[0,0.5],[1,0.5]];portConstraint=eastwest;fontStyle=0" vertex="1" parent="_OIX7uprU67MnlCqu99Z-29">
          <mxGeometry y="60" width="210" height="26" as="geometry" />
        </mxCell>
        <mxCell id="_OIX7uprU67MnlCqu99Z-33" value="ApplicationException" style="swimlane;fontStyle=0;align=center;verticalAlign=top;childLayout=stackLayout;horizontal=1;startSize=26;horizontalStack=0;resizeParent=1;resizeLast=0;collapsible=1;marginBottom=0;rounded=0;shadow=0;strokeWidth=1;" vertex="1" parent="WIyWlLk6GJQsqaUBKTNV-1">
          <mxGeometry x="860" y="585" width="210" height="100" as="geometry">
            <mxRectangle x="130" y="380" width="160" height="26" as="alternateBounds" />
          </mxGeometry>
        </mxCell>
        <mxCell id="_OIX7uprU67MnlCqu99Z-34" value=" " style="text;align=left;verticalAlign=top;spacingLeft=4;spacingRight=4;overflow=hidden;rotatable=0;points=[[0,0.5],[1,0.5]];portConstraint=eastwest;rounded=0;shadow=0;html=0;" vertex="1" parent="_OIX7uprU67MnlCqu99Z-33">
          <mxGeometry y="26" width="210" height="26" as="geometry" />
        </mxCell>
        <mxCell id="_OIX7uprU67MnlCqu99Z-35" value="" style="line;html=1;strokeWidth=1;align=left;verticalAlign=middle;spacingTop=-1;spacingLeft=3;spacingRight=3;rotatable=0;labelPosition=right;points=[];portConstraint=eastwest;" vertex="1" parent="_OIX7uprU67MnlCqu99Z-33">
          <mxGeometry y="52" width="210" height="8" as="geometry" />
        </mxCell>
        <mxCell id="_OIX7uprU67MnlCqu99Z-36" value=" " style="text;align=left;verticalAlign=top;spacingLeft=4;spacingRight=4;overflow=hidden;rotatable=0;points=[[0,0.5],[1,0.5]];portConstraint=eastwest;fontStyle=0" vertex="1" parent="_OIX7uprU67MnlCqu99Z-33">
          <mxGeometry y="60" width="210" height="26" as="geometry" />
        </mxCell>
        <mxCell id="_OIX7uprU67MnlCqu99Z-37" value="" style="endArrow=block;endSize=10;endFill=0;shadow=0;strokeWidth=1;rounded=0;edgeStyle=elbowEdgeStyle;elbow=vertical;entryX=0.5;entryY=1;entryDx=0;entryDy=0;exitX=0.5;exitY=0;exitDx=0;exitDy=0;" edge="1" parent="WIyWlLk6GJQsqaUBKTNV-1" source="_OIX7uprU67MnlCqu99Z-29" target="_OIX7uprU67MnlCqu99Z-33">
          <mxGeometry width="160" relative="1" as="geometry">
            <mxPoint x="1094" y="762" as="sourcePoint" />
            <mxPoint x="929" y="694" as="targetPoint" />
          </mxGeometry>
        </mxCell>
        <mxCell id="_OIX7uprU67MnlCqu99Z-38" value="" style="endArrow=block;endSize=10;endFill=0;shadow=0;strokeWidth=1;rounded=0;edgeStyle=elbowEdgeStyle;elbow=vertical;exitX=0.5;exitY=0;exitDx=0;exitDy=0;entryX=0.5;entryY=1;entryDx=0;entryDy=0;" edge="1" parent="WIyWlLk6GJQsqaUBKTNV-1" source="_OIX7uprU67MnlCqu99Z-24" target="_OIX7uprU67MnlCqu99Z-33">
          <mxGeometry width="160" relative="1" as="geometry">
            <mxPoint x="1075" y="782" as="sourcePoint" />
            <mxPoint x="940" y="702" as="targetPoint" />
          </mxGeometry>
        </mxCell>
      </root>
    </mxGraphModel>
  </diagram>
</mxfile>
